# xmcd
#
# Track frame offsets:
#	150
#	25363
#	44485
#	67552
#	87419
#	102288
#	119954
#	139570
#	161355
#	181012
#	201391
#
# Disc length: 3003 seconds
# Revision: 1
# Processed by: cddbd v1.5.2PL0 Copyright (c) Steve Scherf et al.
# Submitted via: dBpowerAMP V12.0
#
DISCID=930bb90b
DTITLE=Various Artist - Khuc tinh xua 3: Dem tam su
DYEAR=2015
DGENRE=Bolero
TTITLE0=Le Quyen - Hoa no ve dem
TTITLE1=Le Quyen and Thai Chau - Dem tam su
TTITLE2=Le Quyen - Chuyen tau hoang hon
TTITLE3=Le Quyen - Suong lanh chieu dong
TTITLE4=Le Quyen - Kiep cam ca
TTITLE5=Le Quyen - Chieu cuoi tuan
TTITLE6=Le Quyen - Ai cho toi tinh yeu
TTITLE7=Le Quyen - Cau chuyen dau nam
TTITLE8=Le Quyen - Nguoi di ngoai pho
TTITLE9=Le Quyen - Tinh yeu tra lai trang sao
TTITLE10=Le Quyen - Cho vua long em
EXTD=
EXTT0=
EXTT1=
EXTT2=
EXTT3=
EXTT4=
EXTT5=
EXTT6=
EXTT7=
EXTT8=
EXTT9=
EXTT10=
PLAYORDER=
